<mxfile host="app.diagrams.net" modified="2023-01-16T02:12:36.181Z" agent="5.0 (Windows NT 10.0; Win64; x64) AppleWebKit/537.36 (KHTML, like Gecko) Chrome/109.0.0.0 Safari/537.36" etag="GqPBZRKDAFzAM7sOCqw3" version="20.8.5" type="github">
  <diagram name="Page-1" id="e7e014a7-5840-1c2e-5031-d8a46d1fe8dd">
    <mxGraphModel dx="2919" dy="937" grid="1" gridSize="10" guides="1" tooltips="1" connect="1" arrows="1" fold="1" page="1" pageScale="1" pageWidth="1169" pageHeight="826" background="none" math="0" shadow="0">
      <root>
        <mxCell id="0" />
        <mxCell id="1" parent="0" />
        <mxCell id="SPDB-RYZYYu29DdNVvm_-6" value="responden" style="swimlane;whiteSpace=wrap;startSize=23;" parent="1" vertex="1">
          <mxGeometry x="-980" y="40" width="390" height="700" as="geometry" />
        </mxCell>
        <mxCell id="pB2fyGcaQjWH1ag6znyL-3" value="" style="edgeStyle=orthogonalEdgeStyle;rounded=0;orthogonalLoop=1;jettySize=auto;html=1;strokeColor=#FF2A00;startArrow=none;startFill=0;endArrow=open;endFill=0;" parent="SPDB-RYZYYu29DdNVvm_-6" source="SPDB-RYZYYu29DdNVvm_-7" target="pB2fyGcaQjWH1ag6znyL-1" edge="1">
          <mxGeometry relative="1" as="geometry" />
        </mxCell>
        <mxCell id="SPDB-RYZYYu29DdNVvm_-7" value="" style="ellipse;shape=startState;fillColor=#000000;strokeColor=#ff0000;" parent="SPDB-RYZYYu29DdNVvm_-6" vertex="1">
          <mxGeometry x="160" y="50" width="30" height="30" as="geometry" />
        </mxCell>
        <mxCell id="pB2fyGcaQjWH1ag6znyL-1" value="&lt;b&gt;UC -01&lt;br&gt;Login&lt;br&gt;&lt;/b&gt;" style="rounded=1;whiteSpace=wrap;html=1;arcSize=40;fontColor=#000000;fillColor=#ffffc0;strokeColor=#ff0000;" parent="SPDB-RYZYYu29DdNVvm_-6" vertex="1">
          <mxGeometry x="115" y="140" width="120" height="40" as="geometry" />
        </mxCell>
        <mxCell id="pB2fyGcaQjWH1ag6znyL-4" value="Memilih menu lihat survei yang tersedia" style="whiteSpace=wrap;html=1;fillColor=#ffffc0;strokeColor=#ff0000;fontColor=#000000;rounded=1;arcSize=40;fontStyle=0" parent="SPDB-RYZYYu29DdNVvm_-6" vertex="1">
          <mxGeometry x="115" y="230" width="120" height="60" as="geometry" />
        </mxCell>
        <mxCell id="pB2fyGcaQjWH1ag6znyL-5" value="" style="edgeStyle=orthogonalEdgeStyle;rounded=0;orthogonalLoop=1;jettySize=auto;html=1;strokeColor=#FF2A00;startArrow=none;startFill=0;endArrow=open;endFill=0;" parent="SPDB-RYZYYu29DdNVvm_-6" source="pB2fyGcaQjWH1ag6znyL-1" target="pB2fyGcaQjWH1ag6znyL-4" edge="1">
          <mxGeometry relative="1" as="geometry" />
        </mxCell>
        <mxCell id="pB2fyGcaQjWH1ag6znyL-11" value="" style="edgeStyle=orthogonalEdgeStyle;rounded=0;orthogonalLoop=1;jettySize=auto;html=1;strokeColor=#FF2A00;startArrow=none;startFill=0;endArrow=open;endFill=0;" parent="SPDB-RYZYYu29DdNVvm_-6" source="pB2fyGcaQjWH1ag6znyL-8" target="pB2fyGcaQjWH1ag6znyL-10" edge="1">
          <mxGeometry relative="1" as="geometry" />
        </mxCell>
        <mxCell id="pB2fyGcaQjWH1ag6znyL-8" value="Memilih survei" style="whiteSpace=wrap;html=1;fillColor=#ffffc0;strokeColor=#ff0000;fontColor=#000000;rounded=1;arcSize=40;fontStyle=0;" parent="SPDB-RYZYYu29DdNVvm_-6" vertex="1">
          <mxGeometry x="110" y="313" width="120" height="60" as="geometry" />
        </mxCell>
        <mxCell id="pB2fyGcaQjWH1ag6znyL-10" value="Menekan tombol isi" style="whiteSpace=wrap;html=1;fillColor=#ffffc0;strokeColor=#ff0000;fontColor=#000000;rounded=1;arcSize=40;fontStyle=0;" parent="SPDB-RYZYYu29DdNVvm_-6" vertex="1">
          <mxGeometry x="110" y="410" width="120" height="60" as="geometry" />
        </mxCell>
        <mxCell id="QtQNggjy_f1ou5c6kMbG-4" value="" style="edgeStyle=orthogonalEdgeStyle;rounded=0;orthogonalLoop=1;jettySize=auto;html=1;strokeColor=#FF2A00;startArrow=none;startFill=0;endArrow=open;endFill=0;" edge="1" parent="SPDB-RYZYYu29DdNVvm_-6" source="QtQNggjy_f1ou5c6kMbG-1" target="QtQNggjy_f1ou5c6kMbG-3">
          <mxGeometry relative="1" as="geometry" />
        </mxCell>
        <mxCell id="QtQNggjy_f1ou5c6kMbG-1" value="mengisi survei" style="whiteSpace=wrap;html=1;fillColor=#ffffc0;strokeColor=#ff0000;fontColor=#000000;rounded=1;arcSize=40;fontStyle=0;" vertex="1" parent="SPDB-RYZYYu29DdNVvm_-6">
          <mxGeometry x="110" y="500" width="120" height="60" as="geometry" />
        </mxCell>
        <mxCell id="QtQNggjy_f1ou5c6kMbG-3" value="menekan tombol simpan" style="whiteSpace=wrap;html=1;fillColor=#ffffc0;strokeColor=#ff0000;fontColor=#000000;rounded=1;arcSize=40;fontStyle=0;" vertex="1" parent="SPDB-RYZYYu29DdNVvm_-6">
          <mxGeometry x="110" y="590" width="120" height="60" as="geometry" />
        </mxCell>
        <mxCell id="SPDB-RYZYYu29DdNVvm_-20" value="Sistem" style="swimlane;whiteSpace=wrap" parent="1" vertex="1">
          <mxGeometry x="-590" y="40" width="370" height="690" as="geometry" />
        </mxCell>
        <mxCell id="pB2fyGcaQjWH1ag6znyL-6" value="menapilkan list survei" style="whiteSpace=wrap;html=1;fillColor=#ffffc0;strokeColor=#ff0000;fontColor=#000000;rounded=1;arcSize=40;fontStyle=0;" parent="SPDB-RYZYYu29DdNVvm_-20" vertex="1">
          <mxGeometry x="120" y="230" width="120" height="60" as="geometry" />
        </mxCell>
        <mxCell id="pB2fyGcaQjWH1ag6znyL-12" value="menpilkan form pengisian survei" style="whiteSpace=wrap;html=1;fillColor=#ffffc0;strokeColor=#ff0000;fontColor=#000000;rounded=1;arcSize=40;fontStyle=0;" parent="SPDB-RYZYYu29DdNVvm_-20" vertex="1">
          <mxGeometry x="135" y="410" width="120" height="60" as="geometry" />
        </mxCell>
        <mxCell id="QtQNggjy_f1ou5c6kMbG-5" value="menpilkan survei telh diisi" style="whiteSpace=wrap;html=1;fillColor=#ffffc0;strokeColor=#ff0000;fontColor=#000000;rounded=1;arcSize=40;fontStyle=0;" vertex="1" parent="SPDB-RYZYYu29DdNVvm_-20">
          <mxGeometry x="115" y="590" width="120" height="60" as="geometry" />
        </mxCell>
        <mxCell id="pB2fyGcaQjWH1ag6znyL-7" value="" style="edgeStyle=orthogonalEdgeStyle;rounded=0;orthogonalLoop=1;jettySize=auto;html=1;strokeColor=#FF2A00;startArrow=none;startFill=0;endArrow=open;endFill=0;" parent="1" source="pB2fyGcaQjWH1ag6znyL-4" target="pB2fyGcaQjWH1ag6znyL-6" edge="1">
          <mxGeometry relative="1" as="geometry" />
        </mxCell>
        <mxCell id="pB2fyGcaQjWH1ag6znyL-9" value="" style="edgeStyle=orthogonalEdgeStyle;rounded=0;orthogonalLoop=1;jettySize=auto;html=1;strokeColor=#FF2A00;startArrow=none;startFill=0;endArrow=open;endFill=0;" parent="1" source="pB2fyGcaQjWH1ag6znyL-6" target="pB2fyGcaQjWH1ag6znyL-8" edge="1">
          <mxGeometry relative="1" as="geometry">
            <Array as="points">
              <mxPoint x="-365" y="383" />
            </Array>
          </mxGeometry>
        </mxCell>
        <mxCell id="pB2fyGcaQjWH1ag6znyL-13" value="" style="edgeStyle=orthogonalEdgeStyle;rounded=0;orthogonalLoop=1;jettySize=auto;html=1;strokeColor=#FF2A00;startArrow=none;startFill=0;endArrow=open;endFill=0;" parent="1" source="pB2fyGcaQjWH1ag6znyL-10" target="pB2fyGcaQjWH1ag6znyL-12" edge="1">
          <mxGeometry relative="1" as="geometry" />
        </mxCell>
        <mxCell id="QtQNggjy_f1ou5c6kMbG-2" value="" style="edgeStyle=orthogonalEdgeStyle;rounded=0;orthogonalLoop=1;jettySize=auto;html=1;strokeColor=#FF2A00;startArrow=none;startFill=0;endArrow=open;endFill=0;" edge="1" parent="1" source="pB2fyGcaQjWH1ag6znyL-12" target="QtQNggjy_f1ou5c6kMbG-1">
          <mxGeometry relative="1" as="geometry">
            <Array as="points">
              <mxPoint x="-350" y="570" />
            </Array>
          </mxGeometry>
        </mxCell>
        <mxCell id="QtQNggjy_f1ou5c6kMbG-6" value="" style="edgeStyle=orthogonalEdgeStyle;rounded=0;orthogonalLoop=1;jettySize=auto;html=1;strokeColor=#FF2A00;startArrow=none;startFill=0;endArrow=open;endFill=0;" edge="1" parent="1" source="QtQNggjy_f1ou5c6kMbG-3" target="QtQNggjy_f1ou5c6kMbG-5">
          <mxGeometry relative="1" as="geometry" />
        </mxCell>
        <mxCell id="QtQNggjy_f1ou5c6kMbG-7" style="edgeStyle=orthogonalEdgeStyle;rounded=0;orthogonalLoop=1;jettySize=auto;html=1;strokeColor=#FF2A00;startArrow=none;startFill=0;endArrow=open;endFill=0;" edge="1" parent="1" source="QtQNggjy_f1ou5c6kMbG-5" target="QtQNggjy_f1ou5c6kMbG-8">
          <mxGeometry relative="1" as="geometry">
            <mxPoint x="-270" y="660" as="targetPoint" />
          </mxGeometry>
        </mxCell>
        <mxCell id="QtQNggjy_f1ou5c6kMbG-8" value="" style="ellipse;html=1;shape=endState;fillColor=#000000;strokeColor=#ff0000;" vertex="1" parent="1">
          <mxGeometry x="-285" y="645" width="30" height="30" as="geometry" />
        </mxCell>
      </root>
    </mxGraphModel>
  </diagram>
</mxfile>
